<?xml version="1.0" encoding="UTF-8"?>
<svg version="1.1" xmlns="http://www.w3.org/2000/svg" width="800" height="226">
<path d="M0 0 C3.19369622 1.61459087 4.85780204 4.26463167 6.859375 7.12890625 C7.32400146 7.77722412 7.78862793 8.42554199 8.26733398 9.09350586 C13.42991786 16.37287433 18.33012684 23.83480526 23.25463867 31.27612305 C26.97616288 36.89466808 30.73320568 42.47262876 34.671875 47.94140625 C35.43371094 49.00101563 36.19554687 50.060625 36.98046875 51.15234375 C38.39349365 53.08650261 39.82314266 55.00863119 41.26953125 56.91796875 C41.91792969 57.79195312 42.56632812 58.6659375 43.234375 59.56640625 C43.79382813 60.29859375 44.35328125 61.03078125 44.9296875 61.78515625 C46.48286131 64.78864467 46.37197025 66.70025063 46.109375 70.06640625 C44.91943359 72.99145508 44.91943359 72.99145508 43.2578125 76.0234375 C42.65324219 77.13654297 42.04867187 78.24964844 41.42578125 79.39648438 C40.78511719 80.54568359 40.14445312 81.69488281 39.484375 82.87890625 C38.86691406 84.01650391 38.24945313 85.15410156 37.61328125 86.32617188 C35.81955114 89.59831322 33.98077783 92.83814632 32.109375 96.06640625 C31.60970215 96.94071289 31.1100293 97.81501953 30.59521484 98.71582031 C27.21028921 104.25437186 23.69873259 107.19737208 17.984375 110.19140625 C16.47638799 111.02442376 14.96857652 111.8577591 13.4609375 112.69140625 C12.72391602 113.08972656 11.98689453 113.48804688 11.22753906 113.8984375 C9.28602215 114.96900192 7.39352099 116.08854481 5.5078125 117.25390625 C4.46882813 117.89328125 3.42984375 118.53265625 2.359375 119.19140625 C1.45703125 119.75085938 0.5546875 120.3103125 -0.375 120.88671875 C-3.32081723 122.26814236 -4.69581679 122.78350716 -7.890625 122.06640625 C-10.00401574 120.0468767 -11.7189356 118.15273463 -13.515625 115.87890625 C-14.03632568 115.2454126 -14.55702637 114.61191895 -15.09350586 113.95922852 C-16.17478058 112.64366942 -17.25050729 111.32353187 -18.32080078 109.99902344 C-20.65265866 107.12826341 -23.05427987 104.31866096 -25.453125 101.50390625 C-26.34949737 100.44316361 -27.24532892 99.38196372 -28.140625 98.3203125 C-30.0725806 96.03169891 -32.01096191 93.74870724 -33.953125 91.46875 C-34.45513428 90.87843994 -34.95714355 90.28812988 -35.47436523 89.67993164 C-36.43618162 88.54915825 -37.39917287 87.41938277 -38.36352539 86.29077148 C-43.891565 79.78362607 -43.891565 79.78362607 -43.88671875 76.0859375 C-42.87509679 70.47870345 -39.71604422 65.6548449 -36.953125 60.75390625 C-36.36192871 59.68503174 -35.77073242 58.61615723 -35.16162109 57.51489258 C-33.4142034 54.35995096 -31.65327606 51.21285453 -29.890625 48.06640625 C-29.03648951 46.52544334 -28.18347763 44.98385663 -27.33203125 43.44140625 C-25.77726448 40.62712266 -24.2140626 37.81779312 -22.64453125 35.01171875 C-20.7682356 31.65278582 -18.90957139 28.28453801 -17.05944824 24.91111755 C-15.69938729 22.43241994 -14.33527572 19.95596182 -12.97088623 17.47964478 C-12.29708531 16.2543777 -11.62506138 15.02813159 -10.95489502 13.8008728 C-10.01242761 12.07558981 -9.06297982 10.35412562 -8.11328125 8.6328125 C-7.56422119 7.63193604 -7.01516113 6.63105957 -6.44946289 5.59985352 C-3.07020881 0.10783791 -3.07020881 0.10783791 0 0 Z " fill="#0061B1" transform="translate(126.890625,90.93359375)"/>
<path d="M0 0 C3.70096607 1.93683891 5.5843392 5.01653699 7.90625 8.4140625 C8.37482422 9.07470703 8.84339844 9.73535156 9.32617188 10.41601562 C10.24924012 11.72380322 11.160498 13.04001589 12.05908203 14.36474609 C13.23136206 16.06368328 14.48509635 17.70567314 15.74609375 19.33984375 C17.75827076 22.97553766 17.30413187 24.24898076 16.34375 28.2265625 C15.15187073 31.08460999 15.15187073 31.08460999 13.63500977 34.08227539 C13.06673965 35.2152858 12.49846954 36.3482962 11.91297913 37.51564026 C11.28712733 38.74354521 10.66118383 39.97140341 10.03515625 41.19921875 C9.38716787 42.48516398 8.7399608 43.77150316 8.0934906 45.05821228 C6.38627372 48.45173471 4.66989653 51.84053575 2.95111084 55.22821045 C0.23743764 60.58057774 -2.46260336 65.9398479 -5.16298294 71.29893112 C-5.82139243 72.6051462 -6.48024257 73.91113927 -7.13953781 75.2169075 C-11.82531708 84.4991107 -16.40079217 93.82704436 -20.80503845 103.24684143 C-21.17238602 104.03090866 -21.53973358 104.81497589 -21.91821289 105.62280273 C-22.39019859 106.63926125 -22.39019859 106.63926125 -22.87171936 107.67625427 C-23.65625 109.2265625 -23.65625 109.2265625 -24.65625 110.2265625 C-26.953125 110.55859375 -26.953125 110.55859375 -29.65625 110.2265625 C-31.796875 108.42578125 -31.796875 108.42578125 -33.90625 105.9140625 C-34.69 104.99367188 -35.47375 104.07328125 -36.28125 103.125 C-37.065 102.16851562 -37.84875 101.21203125 -38.65625 100.2265625 C-39.3575 99.37320313 -40.05875 98.51984375 -40.78125 97.640625 C-42.23866653 95.85636139 -43.69156576 94.06840123 -45.140625 92.27734375 C-48.08550169 88.70599484 -51.11348692 85.21447949 -54.15625 81.7265625 C-59.44797365 75.65616989 -64.61107541 69.50454156 -69.65625 63.2265625 C-70.36136719 62.46472656 -71.06648438 61.70289063 -71.79296875 60.91796875 C-75.06863634 56.18644889 -75.75960427 51.3297373 -75.28125 45.703125 C-74.3164711 41.65277642 -72.63080821 39.9719951 -69.28125 37.5625 C-64.11063222 34.3907184 -58.69867078 31.70293222 -53.25439453 29.03613281 C-47.73601882 26.30460528 -42.44673646 23.16722479 -37.12710571 20.07202148 C-34.76829086 18.70574387 -32.39726089 17.36149673 -30.02610779 16.01678467 C-25.26034831 13.3128706 -20.52644176 10.56689943 -15.8359375 7.734375 C-14.96235596 7.21125732 -14.08877441 6.68813965 -13.1887207 6.14916992 C-11.59387763 5.19024629 -10.00587213 4.21981408 -8.42651367 3.2355957 C-5.51752944 1.49451328 -3.40391452 0.29033389 0 0 Z " fill="#0061B1" transform="translate(73.65625,13.7734375)"/>
<path d="M0 0 C3.36116911 0.28945458 5.19984857 1.32241066 8.08618164 3.05493164 C9.09874023 3.65499023 10.11129883 4.25504883 11.15454102 4.87329102 C12.20319336 5.50944336 13.2518457 6.1455957 14.33227539 6.80102539 C15.86464844 7.71464844 15.86464844 7.71464844 17.42797852 8.64672852 C22.70847199 11.79503535 22.70847199 11.79503535 24.80606079 13.12113953 C26.90131954 14.35734662 26.90131954 14.35734662 29.7762146 15.56550598 C38.10171704 19.5675816 38.10171704 19.5675816 39.90040588 24.06645203 C40.36305052 27.59268956 40.4337995 30.93643629 40.36352539 34.49243164 C40.3750061 35.78430893 40.38648682 37.07618622 40.39831543 38.4072113 C40.41597751 41.14659765 40.3905064 43.8812815 40.33422852 46.62011719 C40.26679575 50.06280057 40.30563487 53.49416264 40.37557983 56.93642616 C40.67653997 74.45362137 38.16741222 87.32513991 28.28320312 101.93991089 C25.88653727 105.57999939 23.82882517 109.40020988 21.76977539 113.23852539 C16.98651123 113.43243408 16.98651123 113.43243408 15.03588867 111.68725586 C14.51752441 110.95909668 13.99916016 110.2309375 13.46508789 109.48071289 C12.86857422 108.65539062 12.27206055 107.83006836 11.6574707 106.97973633 C11.03453125 106.07513672 10.4115918 105.17053711 9.76977539 104.23852539 C9.12878906 103.32103516 8.48780273 102.40354492 7.82739258 101.45825195 C5.74353588 98.44168904 3.69101006 95.40572123 1.64477539 92.36352539 C0.52085031 90.70109627 -0.60307822 89.03866941 -1.72749329 87.37657166 C-2.85038518 85.71630021 -3.97219399 84.05529641 -5.09399414 82.39428711 C-7.60126758 78.69039951 -10.12554687 74.99851391 -12.65722656 71.3112793 C-13.73343779 69.74170418 -14.80628901 68.16981903 -15.87548828 66.59545898 C-18.15694878 63.23689682 -20.45575625 59.90704065 -22.87866211 56.64868164 C-23.63405273 55.60583008 -24.38944336 54.56297852 -25.16772461 53.48852539 C-25.81612305 52.62743164 -26.46452148 51.76633789 -27.13256836 50.87915039 C-28.3745825 47.89124449 -28.23271534 46.31397532 -27.15429688 43.28735352 C-25.13834834 38.81764674 -22.68998748 34.60025246 -20.23022461 30.36352539 C-19.65369141 29.35789551 -19.0771582 28.35226563 -18.4831543 27.31616211 C-16.7412618 24.2849229 -14.98780886 21.26068851 -13.23022461 18.23852539 C-12.71137695 17.34391602 -12.1925293 16.44930664 -11.65795898 15.52758789 C-2.8148557 0.30105244 -2.8148557 0.30105244 0 0 Z " fill="#0061B1" transform="translate(158.230224609375,33.761474609375)"/>
<path d="M0 0 C3.24710913 1.50905433 4.78493059 4.17678798 6.72265625 7.06640625 C7.14667725 7.68185303 7.57069824 8.2972998 8.00756836 8.93139648 C8.9181582 10.25472955 9.82434052 11.58110404 10.7265625 12.91015625 C12.20103551 15.06361001 13.70752982 17.19139348 15.22265625 19.31640625 C16.22307963 20.73277396 17.22308925 22.14943403 18.22265625 23.56640625 C18.93820679 24.56522827 18.93820679 24.56522827 19.66821289 25.58422852 C20.11028076 26.21901123 20.55234863 26.85379395 21.0078125 27.5078125 C21.39976807 28.06283447 21.79172363 28.61785645 22.19555664 29.18969727 C23.45788193 31.56386564 23.96866767 33.30619931 24.16015625 36.00390625 C23.05541992 38.85620117 23.05541992 38.85620117 21.328125 41.984375 C20.69970703 43.13881104 20.07128906 44.29324707 19.42382812 45.48266602 C18.73210269 46.71909848 18.04003779 47.95534108 17.34765625 49.19140625 C16.64525493 50.4692957 15.94409068 51.74786586 15.24414062 53.02709961 C13.23227114 56.69511851 11.19706876 60.34973872 9.16015625 64.00390625 C8.25937216 65.63614275 7.35945897 67.26886062 6.4609375 68.90234375 C4.52245948 72.41747206 2.56393947 75.92102369 0.6015625 79.42285156 C-1.17817056 82.60973129 -2.94674047 85.80275402 -4.71484375 88.99609375 C-5.74733379 90.85964335 -6.77991341 92.7231433 -7.8125 94.5866394 C-8.49255128 95.81440429 -9.17224407 97.04236781 -9.8515625 98.27053833 C-10.80478957 99.99352333 -11.75978313 101.71553067 -12.71484375 103.4375 C-13.26914063 104.43837646 -13.8234375 105.43925293 -14.39453125 106.47045898 C-15.47120573 108.35773113 -16.63459573 110.19603421 -17.83984375 112.00390625 C-20.19921875 112.4609375 -20.19921875 112.4609375 -22.83984375 112.00390625 C-24.98046875 110.203125 -24.98046875 110.203125 -27.08984375 107.69140625 C-27.86070313 106.78519531 -28.6315625 105.87898438 -29.42578125 104.9453125 C-30.22242187 103.97464844 -31.0190625 103.00398438 -31.83984375 102.00390625 C-32.65710938 101.02292969 -33.474375 100.04195313 -34.31640625 99.03125 C-36.51357315 96.37246335 -38.69255651 93.70310667 -40.83984375 91.00390625 C-41.44054688 90.36195313 -42.04125 89.72 -42.66015625 89.05859375 C-44.39384565 86.03898903 -43.6441829 84.36454495 -42.83984375 81.00390625 C-41.68988522 78.38730069 -40.50169714 75.88388238 -39.19140625 73.3515625 C-38.82300629 72.62315659 -38.45460632 71.89475067 -38.07504272 71.14427185 C-37.28688686 69.58775125 -36.49516722 68.03303092 -35.70019531 66.47998047 C-33.61903016 62.41389376 -31.56335073 58.33493053 -29.50390625 54.2578125 C-29.09674377 53.4536087 -28.6895813 52.64940491 -28.27008057 51.8208313 C-25.03582668 45.42347548 -21.90405318 38.98467773 -18.83984375 32.50390625 C-15.37740429 25.20349447 -11.87002768 17.92876664 -8.27734375 10.69140625 C-7.85904297 9.84191406 -7.44074219 8.99242187 -7.00976562 8.1171875 C-6.62240234 7.34117188 -6.23503906 6.56515625 -5.8359375 5.765625 C-5.49747803 5.08459717 -5.15901855 4.40356934 -4.81030273 3.7019043 C-2.69782231 0.00572786 -2.69782231 0.00572786 0 0 Z " fill="#0061B1" transform="translate(96.83984375,46.99609375)"/>
<path d="M0 0 C3.99643687 0.60569227 5.53693367 3.0689687 7.8828125 6.10546875 C8.85112549 7.30504039 9.81988826 8.50424908 10.7890625 9.703125 C11.28019531 10.32074707 11.77132813 10.93836914 12.27734375 11.57470703 C14.58577625 14.44882732 16.98712886 17.24159516 19.3828125 20.04296875 C23.5657697 24.97285613 27.68585457 29.95012917 31.73828125 34.98828125 C33.68702536 37.39451322 33.68702536 37.39451322 35.68359375 39.41015625 C36.24433594 39.99023438 36.80507813 40.5703125 37.3828125 41.16796875 C37.87007812 41.6371875 38.35734375 42.10640625 38.859375 42.58984375 C40.31227195 45.5461732 39.53661592 48.34209816 38.7578125 51.41796875 C37.48088634 54.63825136 35.93278856 57.69892447 34.35546875 60.78125 C33.91770615 61.65444382 33.47994354 62.52763763 33.02891541 63.42729187 C32.1064211 65.26257606 31.17912703 67.09545468 30.24731445 68.92602539 C28.81865861 71.7337191 27.40523774 74.54868159 25.99414062 77.36523438 C25.09462752 79.15018208 24.19426637 80.93470271 23.29296875 82.71875 C22.65694481 83.98275383 22.65694481 83.98275383 22.0080719 85.27229309 C21.61103561 86.05037827 21.21399933 86.82846344 20.80493164 87.63012695 C20.45709122 88.315168 20.10925079 89.00020905 19.75086975 89.70600891 C18.7578125 91.41796875 18.7578125 91.41796875 16.7578125 93.41796875 C9.67407799 92.8783748 1.48319804 88.76287203 -3.2421875 83.41796875 C-5.82885173 77.59600955 -5.01266526 70.84449506 -4.7421875 64.63671875 C-4.71671352 62.81359577 -4.69777329 60.99037087 -4.68505859 59.16711426 C-4.63369547 54.39030427 -4.49146455 49.62039085 -4.33044434 44.84619141 C-4.18347436 39.96995947 -4.12825195 35.09271986 -4.0625 30.21484375 C-3.95151838 23.11387104 -3.81281454 16.01454395 -3.59375 8.91601562 C-3.5737796 8.16698975 -3.5538092 7.41796387 -3.53323364 6.64624023 C-3.32845592 0.6204613 -3.32845592 0.6204613 0 0 Z " fill="#0061B1" transform="translate(3.2421875,87.58203125)"/>
<path d="M0 0 C0.92039062 -0.00708984 1.84078125 -0.01417969 2.7890625 -0.02148438 C10.31802839 0.04744278 17.21828484 1.38222002 23.875 5 C30.33484833 12.40982602 30.48869674 20.74339425 30.23828125 30.09375 C30 33.4375 30 33.4375 29 35.4375 C13.49 35.4375 -2.02 35.4375 -18 35.4375 C-17.01 39.7275 -16.02 44.0175 -15 48.4375 C-9.87058789 51.52626019 -9.87058789 51.52626019 -4.4375 51.8359375 C-3.39335938 51.83980469 -2.34921875 51.84367187 -1.2734375 51.84765625 C-0.19320312 51.83605469 0.88703125 51.82445312 2 51.8125 C3.62035156 51.82990234 3.62035156 51.82990234 5.2734375 51.84765625 C6.31757812 51.84378906 7.36171875 51.83992188 8.4375 51.8359375 C9.38496094 51.83255371 10.33242188 51.82916992 11.30859375 51.82568359 C14.52851496 51.36127188 16.39766317 50.36948661 19 48.4375 C19.515625 47.40625 20.03125 46.375 20.5625 45.3125 C22 42.4375 22 42.4375 23.9375 41.4375 C26.43928152 41.4375 27.81971289 42.27225261 30 43.4375 C29.97769096 48.35664382 29.58050539 52.33847785 26.5 56.3125 C19.57136794 63.14774569 10.26654277 62.95869526 1.0625 62.9375 C-0.05318359 62.96585938 -1.16886719 62.99421875 -2.31835938 63.0234375 C-9.8213327 63.04101916 -15.83191662 61.91871954 -22 57.4375 C-28.64087182 49.48825222 -28.20932488 41.67324318 -28.25 31.6875 C-28.270625 30.43710938 -28.29125 29.18671875 -28.3125 27.8984375 C-28.34748183 19.6252338 -27.55103828 13.92732738 -23.4375 6.6875 C-16.87514416 0.62994076 -8.5700755 -0.18604506 0 0 Z M-15 13.4375 C-17.78215992 17.1934159 -17.37637057 20.4484646 -18 25.4375 C-5.46 25.4375 7.08 25.4375 20 25.4375 C20.41954274 17.90512115 20.41954274 17.90512115 17 12.4375 C11.70912637 9.86698718 6.76825756 10.10612481 1 10.125 C-0.47726562 10.10083008 -0.47726562 10.10083008 -1.984375 10.07617188 C-8.99840593 10.03770041 -8.99840593 10.03770041 -15 13.4375 Z " fill="#000000" transform="translate(538,91.5625)"/>
<path d="M0 0 C0.94746094 -0.020625 1.89492188 -0.04125 2.87109375 -0.0625 C10.57445783 -0.10465247 17.43212763 1.10713458 24.25 4.8125 C30.67666006 12.18425712 30.91537769 20.58558448 30.7109375 29.90625 C30.375 33.25 30.375 33.25 28.375 35.25 C26.38815308 35.49050903 26.38815308 35.49050903 23.92529297 35.47705078 C23.00448944 35.47689972 22.08368591 35.47674866 21.13497925 35.47659302 C20.13910797 35.46627045 19.14323669 35.45594788 18.1171875 35.4453125 C17.09899933 35.4424826 16.08081116 35.43965271 15.0317688 35.43673706 C11.771061 35.4255177 8.51062516 35.40040996 5.25 35.375 C3.04297271 35.36497247 0.83594112 35.35584623 -1.37109375 35.34765625 C-6.78915572 35.32557268 -12.20705843 35.29207795 -17.625 35.25 C-17.25497219 37.3588577 -16.85298398 39.46212516 -16.4375 41.5625 C-16.10685547 43.32013672 -16.10685547 43.32013672 -15.76953125 45.11328125 C-14.88337814 48.35543413 -14.88337814 48.35543413 -12.359375 50.14306641 C-9.38763842 51.34608905 -7.25957346 51.63701938 -4.0625 51.6484375 C-3.01835937 51.65230469 -1.97421875 51.65617187 -0.8984375 51.66015625 C0.18179687 51.64855469 1.26203125 51.63695312 2.375 51.625 C3.99535156 51.64240234 3.99535156 51.64240234 5.6484375 51.66015625 C6.69257813 51.65628906 7.73671875 51.65242188 8.8125 51.6484375 C9.75996094 51.64505371 10.70742188 51.64166992 11.68359375 51.63818359 C14.90351496 51.17377188 16.77266317 50.18198661 19.375 48.25 C19.890625 47.21875 20.40625 46.1875 20.9375 45.125 C22.375 42.25 22.375 42.25 24.3125 41.25 C26.81428152 41.25 28.19471289 42.08475261 30.375 43.25 C30.24569924 48.53957636 29.94603974 52.98332845 26.05883789 56.97998047 C18.71617234 62.51811969 10.23014592 62.89981872 1.375 62.8125 C-0.29175781 62.84827148 -0.29175781 62.84827148 -1.9921875 62.88476562 C-9.46258741 62.87158257 -15.48234918 61.7012605 -21.625 57.25 C-28.31793807 49.24049551 -27.89058194 41.19146151 -28 31.125 C-28.03738281 29.84367187 -28.07476562 28.56234375 -28.11328125 27.2421875 C-28.18681423 19.26794394 -27.53473579 12.77602958 -22.625 6.25 C-15.51643667 0.33705127 -8.93838606 0.04748147 0 0 Z M-14.625 13.25 C-17.19759197 17.45969595 -16.625 19.94920276 -16.625 25.25 C-4.085 25.25 8.455 25.25 21.375 25.25 C21.24135988 16.79948877 21.24135988 16.79948877 18 13.25 C13.01537621 9.4521914 8.06685607 10.03261022 2.0625 10 C1.12470703 9.979375 0.18691406 9.95875 -0.77929688 9.9375 C-6.14158725 9.90726862 -10.02531665 10.158775 -14.625 13.25 Z " fill="#000000" transform="translate(326.625,91.75)"/>
<path d="M0 0 C1.39992188 -0.01063477 1.39992188 -0.01063477 2.828125 -0.02148438 C9.44795794 0.03861187 16.38579476 0.60877541 21.77490234 4.82666016 C30.47528742 13.92529295 29.44391905 26.45673949 29.33618164 38.171875 C29.31231914 40.95862142 29.31566988 43.74442551 29.32226562 46.53125 C29.31669651 48.30208906 29.30959148 50.0729241 29.30078125 51.84375 C29.30214836 53.09363708 29.30214836 53.09363708 29.30354309 54.36877441 C29.23112781 60.20637219 29.23112781 60.20637219 27 62.4375 C24 62.6875 24 62.6875 21 62.4375 C18.8614515 60.2989515 18.57344937 59.30474686 18 56.4375 C17.45730469 56.78683594 16.91460938 57.13617188 16.35546875 57.49609375 C15.64003906 57.95113281 14.92460938 58.40617187 14.1875 58.875 C13.12595703 59.55369141 13.12595703 59.55369141 12.04296875 60.24609375 C7.28519896 63.02070137 2.6515001 62.65666101 -2.6875 62.6875 C-3.56083984 62.708125 -4.43417969 62.72875 -5.33398438 62.75 C-11.49928179 62.78683523 -17.75496482 62.38310278 -22.56103516 58.02050781 C-27.59524226 52.23090177 -27.41846434 46.52005721 -27.28125 39.1875 C-26.80967847 32.89987954 -24.94974189 29.29213253 -20.4375 25 C-16.0961627 22.21709148 -12.25139955 22.3045348 -7.26953125 22.33984375 C-6.14390022 22.34196617 -6.14390022 22.34196617 -4.99552917 22.34413147 C-2.6011454 22.3497244 -0.20685547 22.36227556 2.1875 22.375 C3.81184761 22.38001592 5.43619668 22.38457866 7.06054688 22.38867188 C11.04040069 22.39969152 15.02018444 22.41695127 19 22.4375 C17.9269391 17.32728487 17.9269391 17.32728487 14.625 13.5625 C5.70718957 9.74058124 -5.946316 10.2687106 -15 13.4375 C-16.61006032 15.87312001 -16.61006032 15.87312001 -17 18.4375 C-17.33 18.7675 -17.66 19.0975 -18 19.4375 C-24.72 18.7175 -24.72 18.7175 -26 17.4375 C-25.84763036 12.86641076 -25.70684414 10.40941069 -23 6.6875 C-15.68259172 1.19944379 -9.03392633 -0.19340588 0 0 Z M-15.41723633 34.32763672 C-18.01603915 37.79190543 -18.20574674 41.19029934 -18 45.4375 C-16.48421777 49.79075298 -16.48421777 49.79075298 -13 52.4375 C-9.79813244 52.70398583 -6.58671838 52.66912107 -3.375 52.6875 C-2.49714844 52.708125 -1.61929688 52.72875 -0.71484375 52.75 C5.23068221 52.78533745 9.59680998 51.96460446 15 49.4375 C17.83060213 46.60689787 18.93221716 44.70910608 19.14648438 40.68945312 C19.12908203 39.70912109 19.11167969 38.72878906 19.09375 37.71875 C19.08021484 36.72939453 19.06667969 35.74003906 19.05273438 34.72070312 C19.02663086 33.59051758 19.02663086 33.59051758 19 32.4375 C14.51601216 32.33846527 10.03260708 32.26595517 5.54785156 32.21777344 C4.02299915 32.19768401 2.49822352 32.17040684 0.97363281 32.13574219 C-1.22089598 32.08710204 -3.41440469 32.06450604 -5.609375 32.046875 C-6.92905273 32.02592773 -8.24873047 32.00498047 -9.60839844 31.98339844 C-13.05762393 32.15406639 -13.05762393 32.15406639 -15.41723633 34.32763672 Z " fill="#000000" transform="translate(654,91.5625)"/>
<path d="M0 0 C2.08760721 0.02144635 4.17177482 0.00013257 6.25927734 -0.02539062 C13.65934955 -0.04112583 19.36116728 0.28838094 25.59130859 4.52148438 C28.6646412 8.84335836 28.9047486 12.29748422 28.59130859 17.52148438 C26.28130859 17.85148437 23.97130859 18.18148437 21.59130859 18.52148438 C20.66318359 17.06742188 20.66318359 17.06742188 19.71630859 15.58398438 C17.93452014 12.49313076 17.93452014 12.49313076 15.59130859 11.52148438 C11.11737723 11.2502623 6.63502698 11.28985944 2.15380859 11.27148438 C0.27338867 11.24054688 0.27338867 11.24054688 -1.64501953 11.20898438 C-2.84449219 11.20382813 -4.04396484 11.19867188 -5.27978516 11.19335938 C-6.38249756 11.18401367 -7.48520996 11.17466797 -8.62133789 11.16503906 C-11.40028512 11.30089408 -11.40028512 11.30089408 -13.26831055 12.82324219 C-15.1863959 15.67963304 -14.76432293 18.20225683 -14.40869141 21.52148438 C-13.35190922 23.3386957 -13.35190922 23.3386957 -11.40869141 24.52148438 C-8.42517578 24.98018683 -8.42517578 24.98018683 -5.01806641 24.92773438 C-3.75091797 24.94964844 -2.48376953 24.9715625 -1.17822266 24.99414062 C0.16160868 25.00492726 1.50145459 25.01402813 2.84130859 25.02148438 C20.4239009 25.14250517 20.4239009 25.14250517 26.90380859 30.39648438 C31.46065543 36.13473595 31.1860122 42.51513248 30.59130859 49.52148438 C29.70997057 53.39110912 28.13337646 55.96435907 25.34130859 58.83398438 C17.783519 63.4717189 9.70790384 62.85546143 1.09130859 62.83398438 C-0.84808594 62.8581543 -0.84808594 62.8581543 -2.82666016 62.8828125 C-11.2336214 62.88713262 -16.94790864 62.75656392 -23.28369141 56.83398438 C-25.92619556 52.71478673 -26.32774586 50.37821721 -26.40869141 45.52148438 C-25.74869141 44.86148438 -25.08869141 44.20148438 -24.40869141 43.52148438 C-20.78369141 43.89648438 -20.78369141 43.89648438 -17.40869141 44.52148438 C-16.74869141 46.83148438 -16.08869141 49.14148438 -15.40869141 51.52148438 C-4.18869141 51.52148438 7.03130859 51.52148438 18.59130859 51.52148438 C20.41454779 42.27797445 20.41454779 42.27797445 17.59130859 37.52148438 C14.73324007 36.09245011 12.23615148 36.35694555 9.04443359 36.31054688 C7.71108831 36.28246272 6.37775515 36.25379817 5.04443359 36.22460938 C2.94678286 36.18347897 0.8493546 36.14658589 -1.24853516 36.12011719 C-3.27635314 36.09232573 -5.30314895 36.04644386 -7.33056641 35.99804688 C-8.54325195 35.97822754 -9.7559375 35.9584082 -11.00537109 35.93798828 C-15.99022373 35.32793386 -19.2736099 33.71792163 -22.72119141 30.08398438 C-26.21952843 24.77169482 -25.99844912 18.70111952 -25.40869141 12.52148438 C-24.16034386 7.72687566 -22.31850225 5.14697933 -18.22119141 2.33007812 C-12.44953745 -0.37554848 -6.24422154 -0.076346 0 0 Z " fill="#000000" transform="translate(397.40869140625,91.478515625)"/>
<path d="M0 0 C1.19367188 -0.01611328 2.38734375 -0.03222656 3.6171875 -0.04882812 C10.32846395 -0.05254011 15.5783242 0.30705167 21.625 3.3125 C24.95859808 6.81705183 26.57967714 9.02079846 26.75 13.875 C26.625 17.3125 26.625 17.3125 25.625 18.3125 C23.29202567 18.35342937 20.95794775 18.35491723 18.625 18.3125 C18.191875 17.343125 17.75875 16.37375 17.3125 15.375 C15.9235139 12.03518235 15.9235139 12.03518235 12.625 11.3125 C10.74141666 11.21832083 8.85468518 11.18178832 6.96875 11.1796875 C5.31166016 11.17775391 5.31166016 11.17775391 3.62109375 11.17578125 C1.89052734 11.18158203 1.89052734 11.18158203 0.125 11.1875 C-1.02871094 11.18363281 -2.18242187 11.17976563 -3.37109375 11.17578125 C-4.47582031 11.17707031 -5.58054687 11.17835937 -6.71875 11.1796875 C-7.73130859 11.18081543 -8.74386719 11.18194336 -9.78710938 11.18310547 C-12.49169611 11.20225524 -12.49169611 11.20225524 -15.375 12.3125 C-15.5976746 13.74784841 -15.80261906 15.18595525 -16 16.625 C-16.11601562 17.42550781 -16.23203125 18.22601563 -16.3515625 19.05078125 C-16.59033407 21.59973215 -16.59033407 21.59973215 -14.375 24.3125 C-10.97480147 25.44589951 -8.314543 25.45491535 -4.73046875 25.48828125 C-3.41369141 25.51212891 -2.09691406 25.53597656 -0.74023438 25.56054688 C1.34654152 25.59558374 3.43274179 25.62496932 5.51977539 25.63842773 C7.54122907 25.65399765 9.56102211 25.69425883 11.58203125 25.73828125 C12.78835205 25.75286377 13.99467285 25.76744629 15.23754883 25.7824707 C20.05745076 26.53663338 23.19103573 28.7301946 26.4375 32.3125 C29.88930858 38.12607235 29.62634579 46.35814082 28.01171875 52.734375 C26.15731151 57.08038667 23.69734203 59.47479753 19.35839844 61.51416016 C13.81042599 63.13454868 7.98643334 62.85995255 2.25195312 62.77905273 C-0.00204614 62.7499736 -2.25370402 62.7584931 -4.5078125 62.77148438 C-12.86771145 62.73548171 -18.84892285 62.68186261 -25.1875 56.625 C-27.91042662 52.50171112 -28.29335765 50.21104102 -28.375 45.3125 C-27.715 44.6525 -27.055 43.9925 -26.375 43.3125 C-22.9375 43.3125 -22.9375 43.3125 -19.375 44.3125 C-17.5625 47.3125 -17.5625 47.3125 -16.375 50.3125 C-13.40140551 51.79929725 -10.71200821 51.42362605 -7.3984375 51.41015625 C-6.71319 51.4087413 -6.0279425 51.40732635 -5.32192993 51.40586853 C-3.13124239 51.40026675 -0.9406567 51.38771406 1.25 51.375 C2.73437352 51.36998522 4.21874865 51.36542228 5.703125 51.36132812 C9.34378315 51.35029677 12.98438164 51.33303099 16.625 51.3125 C16.84831199 49.73120971 17.05304644 48.14728911 17.25 46.5625 C17.36601562 45.68078125 17.48203125 44.7990625 17.6015625 43.890625 C17.6273954 41.04900633 17.18215677 39.66412451 15.625 37.3125 C12.77182696 35.88591348 10.29984507 36.16641188 7.11328125 36.13671875 C5.79779297 36.11287109 4.48230469 36.08902344 3.12695312 36.06445312 C1.03806443 36.02948753 -1.05025998 36.00007913 -3.1394043 35.98657227 C-17.88873196 35.87261692 -17.88873196 35.87261692 -23.375 31.3125 C-27.37067978 26.24743705 -27.50496269 20.57507691 -27.375 14.3125 C-26.60505024 10.05715268 -25.11786028 7.07543758 -22.0625 3.9375 C-14.98290007 -0.34318833 -8.02435891 -0.02152457 0 0 Z " fill="#000000" transform="translate(468.375,91.6875)"/>
<path d="M0 0 C3.23425017 1.2554926 6.13604811 2.71221231 9.15869141 4.41186523 C10.24923828 5.02352539 11.33978516 5.63518555 12.46337891 6.26538086 C13.58744141 6.90282227 14.71150391 7.54026367 15.86962891 8.19702148 C17.00142578 8.8305957 18.13322266 9.46416992 19.29931641 10.11694336 C28.43093233 15.2615919 28.43093233 15.2615919 32.24462891 18.25952148 C31.738336 23.44687495 30.55544044 27.17922817 28.07666016 31.75170898 C27.60071663 32.63706833 27.60071663 32.63706833 27.11515808 33.54031372 C26.44517507 34.78164401 25.77006609 36.02022012 25.09008789 37.25610352 C24.06674618 39.11703263 23.05970105 40.98603702 22.05517578 42.85717773 C18.43792679 49.54723688 14.63152007 56.03676126 10.24462891 62.25952148 C6.19652631 61.72345789 5.48512474 61.55058887 2.73681641 58.22436523 C1.84904562 56.89203497 0.97756386 55.54875686 0.11962891 54.19702148 C-0.83500377 52.73927159 -1.79076778 51.28226205 -2.74755859 49.82592773 C-3.23708008 49.07327637 -3.72660156 48.320625 -4.23095703 47.54516602 C-5.74945874 45.26838622 -7.33264175 43.05627954 -8.95068359 40.84936523 C-9.46228027 40.14239502 -9.97387695 39.4354248 -10.50097656 38.70703125 C-11.48529551 37.35099692 -12.48133399 36.00337371 -13.49023438 34.66552734 C-14.15514893 33.73365601 -14.15514893 33.73365601 -14.83349609 32.78295898 C-15.22956055 32.24590332 -15.625625 31.70884766 -16.03369141 31.15551758 C-17.44449456 27.44905707 -16.05850335 24.03060695 -14.66381836 20.48291016 C-13.99950806 19.09422729 -13.99950806 19.09422729 -13.32177734 17.67749023 C-12.83773437 16.66364258 -12.35369141 15.64979492 -11.85498047 14.60522461 C-11.34773438 13.56301758 -10.84048828 12.52081055 -10.31787109 11.44702148 C-9.81449219 10.38547852 -9.31111328 9.32393555 -8.79248047 8.23022461 C-4.27407584 -1.14861528 -4.27407584 -1.14861528 0 0 Z " fill="#0061B1" transform="translate(116.75537109375,9.740478515625)"/>
<path d="M0 0 C6.05171479 2.47318938 9.86810858 8.13920648 14 13 C14.47969238 13.56348145 14.95938477 14.12696289 15.45361328 14.70751953 C16.88666991 16.41344782 18.29116948 18.13893394 19.6875 19.875 C20.13367676 20.40971924 20.57985352 20.94443848 21.03955078 21.49536133 C24.05664843 25.34478256 24.05664843 25.34478256 23.79956055 28.31835938 C22.86768689 31.44376402 21.54147876 34.00646133 19.9453125 36.8515625 C19.33042969 37.94984375 18.71554688 39.048125 18.08203125 40.1796875 C17.43621094 41.31664062 16.79039063 42.45359375 16.125 43.625 C15.48691406 44.7696875 14.84882812 45.914375 14.19140625 47.09375 C8.71428536 56.81306681 8.71428536 56.81306681 6 59 C0.98501037 58.97279391 -3.28271308 55.7106938 -7.4375 53.1875 C-8.17548828 52.74857422 -8.91347656 52.30964844 -9.67382812 51.85742188 C-13.86399636 49.35077012 -17.96229621 46.74512667 -22 44 C-21.35781704 39.03201835 -19.24017971 34.93639665 -17.0703125 30.48828125 C-16.67931366 29.67884567 -16.28831482 28.8694101 -15.88546753 28.03544617 C-15.05955388 26.3303935 -14.23064072 24.62679091 -13.39892578 22.92456055 C-12.12666916 20.31592246 -10.8695185 17.70036742 -9.61328125 15.08398438 C-8.80819738 13.42664306 -8.00223759 11.76972689 -7.1953125 10.11328125 C-6.82020538 9.32995926 -6.44509827 8.54663727 -6.05862427 7.73957825 C-5.52324539 6.65286079 -5.52324539 6.65286079 -4.97705078 5.54418945 C-4.66696075 4.90641068 -4.35687073 4.2686319 -4.03738403 3.61152649 C-3 2 -3 2 0 0 Z " fill="#0061B1" transform="translate(49,142)"/>
<path d="M0 0 C1.24523437 -0.01160156 2.49046875 -0.02320312 3.7734375 -0.03515625 C11.6060114 -0.01010537 16.84738487 0.53373701 23.375 5 C25.74627344 8.46570734 26.24182996 12.19940273 26 16.375 C25.34 17.035 24.68 17.695 24 18.375 C21.0625 18.3125 21.0625 18.3125 18 17.375 C17.525625 16.570625 17.05125 15.76625 16.5625 14.9375 C14.71789748 11.91235187 13.40683625 11.5970393 10.06616211 10.74780273 C6.37974731 10.0826538 2.7359907 10.08738936 -1 10.125 C-1.76828125 10.11726563 -2.5365625 10.10953125 -3.328125 10.1015625 C-8.25405629 10.11831737 -12.32795306 10.80936725 -17 12.375 C-18.37058178 18.35172535 -18.22322534 24.2703784 -18.25 30.375 C-18.270625 31.550625 -18.29125 32.72625 -18.3125 33.9375 C-18.31765625 35.071875 -18.3228125 36.20625 -18.328125 37.375 C-18.3374707 38.40625 -18.34681641 39.4375 -18.35644531 40.5 C-17.94418729 43.82517154 -16.96400072 45.68458398 -15 48.375 C-10.57763395 51.11736107 -5.59631448 50.63612777 -0.5625 50.5625 C0.68756836 50.5615332 0.68756836 50.5615332 1.96289062 50.56054688 C6.37646555 50.52914595 10.70417351 50.48948329 15 49.375 C16.38858872 46.94614212 16.38858872 46.94614212 17 44.375 C18 43.375 18 43.375 21.5 43.25 C25 43.375 25 43.375 26 44.375 C26.44561155 48.20725929 26.13550112 50.11905345 24.3125 53.5625 C20.10634039 58.67809953 15.38142869 60.20453695 9 61.375 C-1.0335238 62.29221402 -13.3356121 63.30019801 -22 57.375 C-26.58323521 53.14432134 -28.70471146 47.46819095 -29.28979492 41.33935547 C-29.40288719 37.86729582 -29.40914844 34.41115535 -29.375 30.9375 C-29.38660156 29.76123047 -29.39820313 28.58496094 -29.41015625 27.37304688 C-29.3828914 19.24357656 -28.88392431 12.0600144 -23.75 5.5 C-16.21214594 -0.32470541 -9.26054534 -0.08627837 0 0 Z " fill="#000000" transform="translate(728,92.625)"/>
<path d="M0 0 C1.23137695 -0.00630432 2.46275391 -0.01260864 3.73144531 -0.019104 C5.07617333 -0.0155242 6.42090004 -0.01142224 7.765625 -0.00683594 C9.14420643 -0.00818325 10.52278739 -0.01012433 11.90136719 -0.01263428 C14.78975959 -0.01558244 17.67802824 -0.01129787 20.56640625 -0.00195312 C24.2687973 0.00944135 27.97089839 0.00288022 31.67327881 -0.00909805 C34.51971624 -0.01632501 37.36608492 -0.0140249 40.21252441 -0.00884247 C41.57767776 -0.00750828 42.94283734 -0.00914563 44.3079834 -0.01380157 C46.21573772 -0.01888021 48.12351392 -0.0097671 50.03125 0 C51.11696289 0.00159119 52.20267578 0.00318237 53.32128906 0.00482178 C56.015625 0.25878906 56.015625 0.25878906 59.015625 2.25878906 C59.328125 5.25878906 59.328125 5.25878906 59.015625 8.25878906 C57.015625 10.25878906 57.015625 10.25878906 54.31005859 10.48583984 C53.18937988 10.47536621 52.06870117 10.46489258 50.9140625 10.45410156 C49.70234375 10.44765625 48.490625 10.44121094 47.2421875 10.43457031 C45.97117187 10.4178125 44.70015625 10.40105469 43.390625 10.38378906 C42.111875 10.37476562 40.833125 10.36574219 39.515625 10.35644531 C36.34877333 10.33281209 33.18229076 10.29986535 30.015625 10.25878906 C30.02228683 11.12909256 30.02894867 11.99939606 30.03581238 12.89607239 C30.09588703 21.09200055 30.14158081 29.28785493 30.17106152 37.48395252 C30.18672731 41.69781182 30.20798203 45.91148942 30.24194336 50.12524414 C30.27450457 54.19065325 30.29247113 58.25588743 30.30025673 62.32141685 C30.3058061 63.87360069 30.31664255 65.42577479 30.33281517 66.97788429 C30.35454707 69.14961165 30.3575938 71.3206133 30.35620117 73.49243164 C30.36286301 74.72931229 30.36952484 75.96619293 30.37638855 77.24055481 C30.015625 80.25878906 30.015625 80.25878906 28.65449524 82.16215515 C26.33887039 83.71163276 24.73890909 83.60792805 22.015625 83.25878906 C20.015625 81.25878906 20.015625 81.25878906 19.77511597 78.32284546 C19.7817778 76.43754623 19.7817778 76.43754623 19.78857422 74.51416016 C19.78828217 73.82136459 19.78799011 73.12856903 19.78768921 72.41477966 C19.78908469 70.12046873 19.80465581 67.8264809 19.8203125 65.53222656 C19.82404186 63.94324928 19.8268892 62.35426971 19.82888794 60.76528931 C19.83653047 56.57964752 19.85618419 52.39414416 19.8782959 48.20855713 C19.89874104 43.93886182 19.9078868 39.66914419 19.91796875 35.39941406 C19.93942957 27.01914215 19.97357289 18.63898282 20.015625 10.25878906 C18.80447021 10.26664429 18.80447021 10.26664429 17.56884766 10.2746582 C13.92611462 10.29538835 10.28339398 10.30843655 6.640625 10.32128906 C5.36960938 10.32966797 4.09859375 10.33804688 2.7890625 10.34667969 C0.97148437 10.35151367 0.97148437 10.35151367 -0.8828125 10.35644531 C-2.56383057 10.36430054 -2.56383057 10.36430054 -4.27880859 10.37231445 C-6.984375 10.25878906 -6.984375 10.25878906 -8.984375 9.25878906 C-9.171875 5.88378906 -9.171875 5.88378906 -8.984375 2.25878906 C-5.49607176 -0.06674643 -4.12017688 0.0060384 0 0 Z " fill="#000000" transform="translate(245.984375,70.7412109375)"/>
<path d="M0 0 C4.67773438 -0.27978516 4.67773438 -0.27978516 7.578125 2.23828125 C8.48361303 3.24991139 9.37347433 4.27567463 10.25 5.3125 C10.72961182 5.85793457 11.20922363 6.40336914 11.70336914 6.96533203 C15.43593828 11.24191183 19.04175134 15.62586507 22.58203125 20.0625 C24.4309633 22.30869855 26.30903282 24.47202412 28.26171875 26.625 C28.81867432 27.24713379 29.37562988 27.86926758 29.94946289 28.51025391 C31.04716015 29.73190795 32.15670576 30.94304225 33.27905273 32.14208984 C36.96669256 36.27868565 36.96669256 36.27868565 37.125 39.70703125 C35.67380881 42.66484108 34.20943475 43.65551171 31.375 45.3125 C30.53710938 45.82425781 29.69921875 46.33601563 28.8359375 46.86328125 C24.35135776 48.66081941 20.52572232 48.61280351 16.03735352 46.81005859 C15.07756592 46.26172363 14.11777832 45.71338867 13.12890625 45.1484375 C12.05962891 44.54386719 10.99035156 43.93929687 9.88867188 43.31640625 C8.2422168 42.35541016 8.2422168 42.35541016 6.5625 41.375 C5.46873047 40.75753906 4.37496094 40.14007813 3.24804688 39.50390625 C-2.8174578 36.03477353 -8.5542964 32.38379648 -14 28 C-13.40540982 23.94714475 -12.09571168 21.02070282 -10.05859375 17.48046875 C-9.47529297 16.45888672 -8.89199219 15.43730469 -8.29101562 14.38476562 C-7.67935547 13.32966797 -7.06769531 12.27457031 -6.4375 11.1875 C-5.82197266 10.11306641 -5.20644531 9.03863281 -4.57226562 7.93164062 C-3.05435656 5.28412482 -1.53010236 2.64048144 0 0 Z " fill="#0061B1" transform="translate(76,178)"/>
<path d="M0 0 C2 2 2 2 2.1953125 5.0390625 C2.17210937 6.22242187 2.14890625 7.40578125 2.125 8.625 C2.10695313 9.81351563 2.08890625 11.00203125 2.0703125 12.2265625 C2.04710937 13.14179687 2.02390625 14.05703125 2 15 C3.20398438 14.97679688 4.40796875 14.95359375 5.6484375 14.9296875 C7.22395215 14.91093137 8.79947348 14.89273101 10.375 14.875 C11.1690625 14.85824219 11.963125 14.84148437 12.78125 14.82421875 C14.85492015 14.80664527 16.92883241 14.89664832 19 15 C21 17 21 17 21.25 20 C21 23 21 23 19 25 C16.0906442 25.14517744 13.280054 25.18630796 10.375 25.125 C9.57320312 25.11597656 8.77140625 25.10695313 7.9453125 25.09765625 C5.96341477 25.07406223 3.98167019 25.03819065 2 25 C2.09382536 29.6085035 2.19998247 34.21649957 2.31738281 38.82446289 C2.35557409 40.39079081 2.39044394 41.95720349 2.421875 43.52368164 C2.46774071 45.780418 2.52569769 48.03657583 2.5859375 50.29296875 C2.59748871 50.98899704 2.60903992 51.68502533 2.62094116 52.40214539 C2.73941036 56.33909952 3.17855043 59.48651328 5 63 C8.72165147 66.15776488 12.31303374 66.43080691 17.01171875 66.69140625 C19 67 19 67 21 69 C20.42307692 75.57692308 20.42307692 75.57692308 19 77 C11.67574246 77.90258527 5.43179795 76.57584363 -1 73 C-5.48918468 69.08635182 -6.88481087 63.69985555 -8 58 C-8.35317951 52.28413425 -8.28530491 46.59812509 -8.1875 40.875 C-8.17242062 39.33074227 -8.15873799 37.78647024 -8.14648438 36.2421875 C-8.11374857 32.49448985 -8.06214757 28.74733891 -8 25 C-8.62648438 25.02320312 -9.25296875 25.04640625 -9.8984375 25.0703125 C-11.12433594 25.09738281 -11.12433594 25.09738281 -12.375 25.125 C-13.59316406 25.15980469 -13.59316406 25.15980469 -14.8359375 25.1953125 C-17 25 -17 25 -19 23 C-19.25 20.5 -19.25 20.5 -19 18 C-17 16 -17 16 -14.8359375 15.8046875 C-13.61777344 15.83949219 -13.61777344 15.83949219 -12.375 15.875 C-11.14910156 15.90207031 -11.14910156 15.90207031 -9.8984375 15.9296875 C-8.95871094 15.96449219 -8.95871094 15.96449219 -8 16 C-8.03480469 15.09636719 -8.06960938 14.19273438 -8.10546875 13.26171875 C-8.13253906 12.08222656 -8.15960937 10.90273437 -8.1875 9.6875 C-8.23970703 7.92986328 -8.23970703 7.92986328 -8.29296875 6.13671875 C-8 3 -8 3 -6.6484375 1.1015625 C-4.32669706 -0.4499323 -2.73009061 -0.35001162 0 0 Z " fill="#000000" transform="translate(779,77)"/>
<path d="M0 0 C3 -0.3125 3 -0.3125 6 0 C8.5654594 2.5654594 8.54046087 4.47686668 9 8 C9.49628906 7.59007813 9.99257813 7.18015625 10.50390625 6.7578125 C17.35754402 1.3217203 23.27679731 -0.58154685 32 0 C32.99 0.66 33.98 1.32 35 2 C35.3125 5 35.3125 5 35 8 C32.32735296 10.67264704 30.47030743 10.49157274 26.75 10.9375 C20.45615757 11.83959428 16.06777709 12.70867944 11.6875 17.5625 C8.70678456 21.86797785 8.81934034 25.33105263 8.75390625 30.4375 C8.72097889 32.15365115 8.68776706 33.86979685 8.65429688 35.5859375 C8.60679071 38.29846586 8.56234168 41.01097043 8.52319336 43.72363281 C8.48359243 46.33681973 8.43203082 48.94955804 8.37890625 51.5625 C8.3704921 52.37710693 8.36207794 53.19171387 8.35340881 54.03100586 C8.22669766 59.77330234 8.22669766 59.77330234 6 62 C3 62.3125 3 62.3125 0 62 C-2.24494728 58.63257908 -2.25238738 57.50562857 -2.25878906 53.56640625 C-2.26509338 52.45515381 -2.27139771 51.34390137 -2.27789307 50.19897461 C-2.2738446 48.99893799 -2.26979614 47.79890137 -2.265625 46.5625 C-2.26753845 45.33088135 -2.2694519 44.0992627 -2.27142334 42.83032227 C-2.27313434 39.55660981 -2.2650772 36.28308671 -2.25390625 33.00939941 C-2.25000384 31.00197301 -2.25389219 28.99472147 -2.26074219 26.98730469 C-2.27307287 23.13728679 -2.27160643 19.28752858 -2.265625 15.4375 C-2.26967346 14.23746338 -2.27372192 13.03742676 -2.27789307 11.80102539 C-2.27158875 10.68977295 -2.26528442 9.57852051 -2.25878906 8.43359375 C-2.25719788 7.45447021 -2.25560669 6.47534668 -2.25396729 5.46655273 C-2 3 -2 3 0 0 Z " fill="#000000" transform="translate(588,92)"/>
<path d="M0 0 C0.99 0.66 1.98 1.32 3 2 C4.08318511 7.86725268 1.16431151 12.35841346 -1.5 17.375 C-1.92925781 18.20644531 -2.35851562 19.03789062 -2.80078125 19.89453125 C-3.85649177 21.9355716 -4.92300591 23.97013348 -6 26 C-8.23828125 26.328125 -8.23828125 26.328125 -11 26 C-13.16796875 23.734375 -13.16796875 23.734375 -15.1875 20.75 C-15.86167969 19.77546875 -16.53585938 18.8009375 -17.23046875 17.796875 C-21.03982765 11.77590156 -21.03982765 11.77590156 -20.89453125 8.9453125 C-19.67624673 6.29594266 -18.14467677 5.41123818 -15.6875 3.875 C-14.90761719 3.37742187 -14.12773438 2.87984375 -13.32421875 2.3671875 C-8.25073338 -0.61721566 -5.98652639 -1.30615121 0 0 Z " fill="#0061B1" transform="translate(103,1)"/>
<path d="M0 0 C1.65 0.33 3.3 0.66 5 1 C5 11.23 5 21.46 5 32 C3.02 32.495 3.02 32.495 1 33 C-3.51599757 29.2945661 -8.55753326 24.19659647 -9.3828125 18.234375 C-8.89564616 14.11831655 -7.19286914 11.15071547 -5.0625 7.6875 C-4.50272461 6.73907227 -4.50272461 6.73907227 -3.93164062 5.77148438 C-1.23028274 1.23028274 -1.23028274 1.23028274 0 0 Z " fill="#0061B1" transform="translate(192,139)"/>
<path d="M0 0 C2.25 -0.3125 2.25 -0.3125 5 0 C7.62641403 2.41906556 8.8910696 3.91069601 9.25 7.5 C7.27938149 11.44123703 4.0056023 13.32095994 0 15 C-3 14.8125 -3 14.8125 -5 14 C-4.53411505 8.29290936 -3.06242216 4.84060277 0 0 Z " fill="#0062B0" transform="translate(176,168)"/>
</svg>
